<svg id="Capa_1" data-name="Capa 1" xmlns="http://www.w3.org/2000/svg" viewBox="0 0 300 70"><defs><style>.cls-1,.cls-2{stroke:#fff;stroke-miterlimit:10;stroke-width:3px;}.cls-2,.cls-3{fill:#fff;}</style></defs><path class="cls-1" d="M12.21,2.59h183a0,0,0,0,1,0,0V67a0,0,0,0,1,0,0h-183A10.2,10.2,0,0,1,2,56.82v-44a10.2,10.2,0,0,1,10.2-10.2Z"/><path class="cls-2" d="M195.24,2.59h91.28A11.4,11.4,0,0,1,297.91,14V55.63A11.4,11.4,0,0,1,286.52,67H195.24a0,0,0,0,1,0,0V2.59a0,0,0,0,1,0,0Z"/><path class="cls-3" d="M28,13.54c7.74,0,12,2.73,14.91,8.71a1.3,1.3,0,0,1-.79,2l-2.39,1.08c-1.09.46-1.43.34-1.94-.74-2-3.93-4.78-5.75-9.79-5.75-6.32,0-9.51,2.16-9.51,6.43,0,3,1.82,4.56,4.67,5.41a26.13,26.13,0,0,0,6.26,1.14,28.78,28.78,0,0,1,7.91,1.71,11.52,11.52,0,0,1,3.36,2,10.53,10.53,0,0,1,3,7.8C43.71,51,38,55.67,27.94,55.67c-8.37,0-13-3.14-15.54-9.74-.4-1.08-.17-1.54,1-1.94l2.33-.85c1-.4,1.48-.17,1.94.91,1.87,4.27,5.29,6.43,10.3,6.43,6.83,0,10.25-2.33,10.25-7a4.84,4.84,0,0,0-3.13-4.84,24.62,24.62,0,0,0-7-1.54,38,38,0,0,1-7-1.2,10.39,10.39,0,0,1-3.3-1.25,9.23,9.23,0,0,1-5-9C12.85,18.32,18.38,13.54,28,13.54Z"/><path class="cls-3" d="M74.8,14.39c1.08,0,1.48.4,1.48,1.48V18c0,1.09-.4,1.48-1.48,1.48H64V53.33c0,1.08-.35,1.48-1.48,1.48H60.05c-1.14,0-1.48-.4-1.48-1.48V19.51H47.81c-1.14,0-1.48-.39-1.48-1.48V15.87c0-1.08.34-1.48,1.48-1.48Z"/><path class="cls-3" d="M79.46,28.11c0-9.11,5.75-14.57,15.94-14.57S111.35,19,111.35,28.11v13c0,9.11-5.75,14.58-15.95,14.58S79.46,50.2,79.46,41.09Zm26.36,0c0-6.09-3.75-9.45-10.42-9.45S85,22,85,28.11v13c0,6.09,3.75,9.45,10.41,9.45s10.42-3.36,10.42-9.45Z"/><path class="cls-3" d="M136.05,14.39c7.69,0,12.3,4.44,12.3,12.13,0,6.09-3.07,10.13-8.37,11.33A8,8,0,0,1,142.83,41l6.32,12.24c.51,1,.28,1.54-.8,1.54h-2.5c-1.88,0-2.45-.23-3-1.31L137.7,43.08c-1.65-3.41-3.35-4.49-7.51-4.49H124.1V53.33c0,1.08-.4,1.48-1.54,1.48h-2.5c-1.09,0-1.48-.4-1.48-1.48V15.87c0-1.08.39-1.48,1.48-1.48Zm-.51,5.12H124.1v14h11.44c4.5,0,7.06-2.56,7.06-6.94S140,19.51,135.54,19.51Z"/><path class="cls-3" d="M179.78,14.39c1.14,0,1.48.4,1.48,1.48V18c0,1.09-.34,1.48-1.48,1.48H160.93V31.75h16.23c1.14,0,1.48.4,1.48,1.54V35.4c0,1.14-.34,1.48-1.48,1.48H160.93V49.69h19.53c1.14,0,1.48.4,1.48,1.48v2.16c0,1.08-.34,1.48-1.48,1.48H156.89c-1.08,0-1.48-.4-1.48-1.48V15.87c0-1.08.4-1.48,1.48-1.48Z"/><path d="M237,44.36V15.21c0-.45.24-.68.74-.68h5.4a.61.61,0,0,1,.69.68V54.78c0,.49-.23.74-.69.74h-5.69a1.51,1.51,0,0,1-1.14-.57L214.83,25.74v29c0,.49-.23.74-.68.74h-5.41a.66.66,0,0,1-.74-.74V15.21c0-.45.25-.68.74-.68h5.58a1.32,1.32,0,0,1,1.14.57Z"/><path d="M285.14,55c.34.38.25.57-.28.57H277.8a1.21,1.21,0,0,1-1.08-.63L266.64,40.43,256.51,54.89a1.24,1.24,0,0,1-1.09.63h-7c-.54,0-.63-.19-.29-.57L262.2,35.31a.53.53,0,0,0,0-.57L248.08,15.1c-.3-.38-.21-.57.29-.57h7.11a1.32,1.32,0,0,1,1.14.57ZM269.77,26.14a.93.93,0,0,1,0-1.14l6.89-9.9a1.26,1.26,0,0,1,1.08-.57h7.12c.49,0,.59.19.28.57L273.76,30.93c-.12.22-.25.34-.4.34s-.21-.12-.4-.34Z"/></svg>